<?xml version="1.0" encoding="iso-8859-1"?>
<!-- Uploaded to: SVG Repo, www.svgrepo.com, Generator: SVG Repo Mixer Tools -->
<svg fill="#000000" height="800px" width="800px" version="1.1" id="Layer_1" xmlns="http://www.w3.org/2000/svg" xmlns:xlink="http://www.w3.org/1999/xlink" 
	 viewBox="0 0 512 512" xml:space="preserve">
<g>
	<g>
		<g>
			<path d="M405.333,149.333C405.333,66.853,338.481,0,256,0S106.667,66.853,106.667,149.333c0,52.144,26.725,98.033,67.22,124.742
				l14.645,175.845C191.461,485.002,220.8,512,256,512s64.539-26.998,67.467-62.076l14.646-175.849
				C378.608,247.366,405.333,201.477,405.333,149.333z M149.333,149.333c0-58.917,47.75-106.667,106.667-106.667
				s106.667,47.75,106.667,106.667c0,39.876-21.877,74.631-54.282,92.934c-0.32,0.158-0.64,0.312-0.957,0.487
				c-9.723,5.383-20.198,9.195-31.124,11.308c-0.088,0.017-0.176,0.034-0.264,0.051c-0.991,0.189-1.987,0.363-2.985,0.524
				c-0.088,0.014-0.176,0.03-0.264,0.044c-2.108,0.334-4.232,0.604-6.369,0.812c-0.255,0.025-0.511,0.045-0.766,0.068
				c-0.779,0.07-1.559,0.132-2.341,0.185c-0.332,0.022-0.664,0.044-0.996,0.063c-0.746,0.044-1.493,0.078-2.242,0.106
				c-0.313,0.012-0.625,0.027-0.938,0.036c-1.043,0.03-2.088,0.049-3.136,0.049c-1.048,0-2.093-0.019-3.136-0.049
				c-0.313-0.009-0.626-0.024-0.938-0.036c-0.749-0.028-1.496-0.062-2.242-0.106c-0.332-0.019-0.664-0.041-0.996-0.063
				c-0.782-0.053-1.562-0.115-2.34-0.185c-0.255-0.023-0.512-0.043-0.767-0.068c-2.137-0.208-4.261-0.477-6.369-0.811
				c-0.089-0.014-0.177-0.03-0.266-0.044c-0.998-0.161-1.993-0.335-2.984-0.524c-0.088-0.017-0.177-0.034-0.265-0.051
				c-10.926-2.112-21.401-5.925-31.124-11.308c-0.317-0.176-0.637-0.33-0.957-0.487
				C171.211,223.964,149.333,189.209,149.333,149.333z M280.948,446.379c-1.082,12.965-11.939,22.955-24.948,22.955
				c-13.01,0-23.866-9.99-24.949-22.959l-12.701-152.497c7.49,1.945,15.209,3.32,23.107,4.083c0.226,0.022,0.454,0.039,0.68,0.06
				c1.217,0.112,2.439,0.21,3.665,0.292c0.413,0.028,0.827,0.054,1.241,0.079c1.092,0.065,2.187,0.116,3.285,0.157
				c0.415,0.016,0.83,0.035,1.246,0.047c1.47,0.043,2.944,0.07,4.425,0.07c1.481,0,2.955-0.028,4.425-0.07
				c0.416-0.012,0.831-0.032,1.246-0.047c1.098-0.041,2.193-0.092,3.285-0.157c0.414-0.025,0.828-0.051,1.241-0.079
				c1.226-0.083,2.447-0.18,3.665-0.292c0.227-0.021,0.454-0.038,0.68-0.06c7.898-0.763,15.618-2.138,23.107-4.083L280.948,446.379z
				"/>
			<path d="M213.333,170.667c11.782,0,21.333-9.551,21.333-21.333c0-11.791,9.542-21.333,21.333-21.333
				c11.782,0,21.333-9.551,21.333-21.333c0-11.782-9.551-21.333-21.333-21.333c-35.355,0-64,28.645-64,64
				C192,161.115,201.551,170.667,213.333,170.667z"/>
		</g>
	</g>
</g>
</svg>