<svg width="24" height="24" viewBox="0 0 24 24" fill="none" xmlns="http://www.w3.org/2000/svg">
<path d="M7.97538 10.4348H5.59033V12.82H7.97538V10.4348Z" fill="#E6EEE8"/>
<path d="M18.4099 10.4348H16.0249V12.82H18.4099V10.4348Z" fill="#E6EEE8"/>
<path d="M14.9319 10.4348H12.5469V12.82H14.9319V10.4348Z" fill="#E6EEE8"/>
<path d="M7.97538 14.1614H5.59033V16.5466H7.97538V14.1614Z" fill="#E6EEE8"/>
<path d="M14.9319 14.1614H12.5469V16.5466H14.9319V14.1614Z" fill="#E6EEE8"/>
<path d="M11.4534 14.1614H9.06836V16.5466H11.4534V14.1614Z" fill="#E6EEE8"/>
<path d="M18.4099 17.8882H16.0249V20.2734H18.4099V17.8882Z" fill="#E6EEE8"/>
<path d="M14.9319 17.8882H12.5469V20.2734H14.9319V17.8882Z" fill="#E6EEE8"/>
<path d="M11.4534 17.8882H9.06836V20.2734H11.4534V17.8882Z" fill="#E6EEE8"/>
<path d="M20.5912 2.58032H18.6517V4.43985C18.6517 5.1337 18.08 5.69798 17.3775 5.69798H14.845C14.1425 5.69798 13.5709 5.1337 13.5709 4.43985V2.58032H10.4259V4.42237C10.4259 5.12587 9.84793 5.69798 9.13754 5.69798H6.63329C5.9229 5.69798 5.34498 5.12587 5.34498 4.42237V2.58032H3.40548C2.14426 2.58032 1.11816 3.59713 1.11816 4.84692V21.7334C1.11816 22.9832 2.14426 24 3.40548 24H20.5912C21.8543 24 22.8819 22.9832 22.8819 21.7334V4.84692C22.8819 3.59718 21.8543 2.58032 20.5912 2.58032ZM21.2423 21.6894C21.2423 22.0907 20.9727 22.3602 20.5714 22.3602H3.42868C3.02743 22.3602 2.75785 22.0907 2.75785 21.6894V8.34796H21.2423V21.6894Z" fill="#E6EEE8"/>
<path d="M6.63398 4.80502H9.13673C9.34865 4.80502 9.52106 4.63378 9.52106 4.42327V0.960609C9.52106 0.430922 9.08653 0 8.55234 0H7.21832C6.68418 0 6.24951 0.430875 6.24951 0.960609V4.42327C6.24956 4.63378 6.42196 4.80502 6.63398 4.80502Z" fill="#E6EEE8"/>
<path d="M14.8451 4.80502H17.3775C17.5813 4.80502 17.747 4.64034 17.747 4.43817V0.945844C17.747 0.424359 17.3192 0 16.7931 0H15.4294C14.9035 0 14.4756 0.424359 14.4756 0.945844V4.43817C14.4755 4.64034 14.6413 4.80502 14.8451 4.80502Z" fill="#E6EEE8"/>
</svg>
