<svg width="24" height="24" viewBox="0 0 24 24" fill="none" xmlns="http://www.w3.org/2000/svg">
<rect width="24" height="24" rx="6" fill="#F5F7F4"/>
<g clip-path="url(#clip0_42_109)">
<path fill-rule="evenodd" clip-rule="evenodd" d="M5 6.50685C5 5.95079 5.44995 5.5 6.00684 5.5H17.9932C18.5492 5.5 19 5.94996 19 6.50685V18.4931C19 19.0492 18.5501 19.5 17.9932 19.5H6.00684C5.45078 19.5 5 19.05 5 18.4931V6.50685ZM6 9.5H18V18.5H6V9.5ZM14.5 16V12H13.7575L12.5 13.2654L12.985 13.7751L13.6497 13.0975V16H14.5ZM10.5 16C11.4125 16 12 15.5298 12 14.8621C12 14.2816 11.4981 13.9739 11.1103 13.9332C11.5323 13.8578 11.943 13.5385 11.943 13.0508C11.943 12.4064 11.3954 12 10.5057 12C9.83841 12 9.35932 12.2613 9.05133 12.6154L9.45628 13.1321C9.72434 12.8708 10.0551 12.7315 10.4259 12.7315C10.8194 12.7315 11.1331 12.8824 11.1331 13.1901C11.1331 13.4746 10.8479 13.6023 10.4259 13.6023C10.2833 13.6023 10.0209 13.6023 9.95247 13.5965V14.3396C10.0095 14.3338 10.2662 14.328 10.4259 14.328C10.9563 14.328 11.1901 14.4673 11.1901 14.775C11.1901 15.0653 10.9335 15.2685 10.4715 15.2685C10.1008 15.2685 9.68441 15.106 9.42776 14.8273L9 15.3788C9.27947 15.7271 9.80418 16 10.5 16ZM8 5C8 4.72386 8.21404 4.5 8.50468 4.5H9.49532C9.77404 4.5 10 4.73193 10 5V5.5H8V5ZM14 5C14 4.72386 14.214 4.5 14.5047 4.5H15.4953C15.774 4.5 16 4.73193 16 5V5.5H14V5Z" fill="#5F8F6F"/>
</g>
<defs>
<clipPath id="clip0_42_109">
<rect width="15" height="15" fill="white" transform="translate(4.5 4.5)"/>
</clipPath>
</defs>
</svg>
