<svg width="24" height="24" viewBox="0 0 24 24" fill="none" xmlns="http://www.w3.org/2000/svg">
<rect width="24" height="24" rx="6" fill="#F5F7F4"/>
<path d="M12 5C9.10069 5 6.75 7.35069 6.75 10.25C6.75 11.3917 7.12428 12.4392 7.74641 13.2972C7.75756 13.3177 7.75931 13.3407 7.772 13.3604L11.272 18.6104C11.4343 18.8539 11.7077 19 12 19C12.2923 19 12.5657 18.8539 12.728 18.6104L16.228 13.3604C16.2409 13.3407 16.2424 13.3177 16.2536 13.2972C16.8757 12.4392 17.25 11.3917 17.25 10.25C17.25 7.35069 14.8993 5 12 5ZM12 12C11.0336 12 10.25 11.2164 10.25 10.25C10.25 9.28356 11.0336 8.5 12 8.5C12.9664 8.5 13.75 9.28356 13.75 10.25C13.75 11.2164 12.9664 12 12 12Z" fill="#5F8F6F"/>
</svg>
