<svg xmlns="http://www.w3.org/2000/svg" width="24" height="24" fill="none" viewBox="0 0 24 24"><rect width="24" height="24" fill="#f5f7f4" rx="6"/><g fill="#5f8f6f" clip-path="url(#a)"><path d="M16.92 12.862a1.61 1.61 0 1 0 .001-3.219 1.61 1.61 0 0 0 0 3.22M18.982 14.413c-.072-.43-.428-1.034-.698-1.303-.035-.036-.194-.044-.237-.018a2.14 2.14 0 0 1-2.252 0c-.043-.027-.202-.018-.237.018a2 2 0 0 0-.238.292c.217.408.389.842.451 1.216s.042.729-.059 1.052c.357.13.785.186 1.209.186 1.106 0 2.238-.384 2.06-1.443M11.959 12.183a2.609 2.609 0 1 0 0-5.218 2.609 2.609 0 0 0 0 5.218M14.168 12.583c-.057-.057-.314-.071-.384-.028a3.47 3.47 0 0 1-3.65 0c-.07-.043-.327-.029-.383.027-.438.438-1.016 1.416-1.132 2.114-.286 1.718 1.549 2.338 3.34 2.338 1.792 0 3.627-.62 3.34-2.338-.116-.697-.693-1.676-1.131-2.113M7.08 12.862a1.61 1.61 0 1 0 0-3.219 1.61 1.61 0 0 0 0 3.22M8.147 14.618c.066-.393.252-.855.486-1.282a2 2 0 0 0-.19-.226c-.036-.036-.194-.044-.237-.018a2.14 2.14 0 0 1-2.253 0c-.042-.027-.201-.018-.237.018-.27.269-.626.872-.698 1.303-.176 1.06.955 1.443 2.061 1.443.395 0 .794-.049 1.134-.16a2.26 2.26 0 0 1-.066-1.078"/></g><defs><clipPath id="a"><path fill="#fff" d="M5 5h14v14H5z"/></clipPath></defs></svg>