<svg xmlns="http://www.w3.org/2000/svg" xml:space="preserve" id="Layer_1" width="800" height="800" viewBox="0 0 120 120"><style>.st4{fill:#000}</style><path d="M87.3 75.1c-10.8 0-19.7 7.1-20.7 16.1-.1.9.6 1.7 1.6 1.7h38.3c.9 0 1.7-.8 1.6-1.7-1.1-9-10-16.1-20.8-16.1M32.7 75.1C21.9 75.1 13 82.2 12 91.2c-.1.9.6 1.7 1.6 1.7h38.3c.9 0 1.7-.8 1.6-1.7-1.1-9-10-16.1-20.8-16.1M80.8 31.2c0 2.4-.8 5.1-1.7 6.5-3.1 4.6-13.8 14.6-17.7 18.2-.8.7-2 .7-2.8 0-3.9-3.6-14.6-13.6-17.7-18.2-.9-1.4-1.7-4.1-1.7-6.5 0-2.9 1-5.6 2.6-7.8q1.2-1.5 2.7-2.7c2.2-1.6 4.9-2.6 7.8-2.6s5.6.9 7.7 2.6c2.2-1.6 4.8-2.6 7.7-2.6s5.6 1 7.8 2.6q1.5 1.2 2.7 2.7c1.6 2.2 2.6 4.9 2.6 7.8" style="fill:#000"/><path d="M60 84.1c-10.8 0-19.7 7.1-20.7 16.1-.1.9.6 1.7 1.6 1.7h38.3c.9 0 1.7-.8 1.6-1.7-1.1-9.1-10-16.1-20.8-16.1" style="fill:#000"/><circle cx="87.3" cy="64.1" r="8.5" class="st4" transform="rotate(-9.218 87.315 64.073)"/><circle cx="32.7" cy="64.1" r="8.5" class="st4" transform="rotate(-67.5 32.677 64.078)"/><circle cx="60" cy="73" r="8.5" class="st4"/></svg>